<?xml version="1.0" encoding="utf-8"?>
<!-- Generator: Adobe Illustrator 18.0.0, SVG Export Plug-In . SVG Version: 6.00 Build 0)  -->
<!DOCTYPE svg PUBLIC "-//W3C//DTD SVG 1.1//EN" "http://www.w3.org/Graphics/SVG/1.1/DTD/svg11.dtd">
<svg version="1.1" id="Layer_1" xmlns="http://www.w3.org/2000/svg" xmlns:xlink="http://www.w3.org/1999/xlink" x="0px" y="0px"
	 viewBox="661 244.4 660.1 664.1" enable-background="new 661 244.4 660.1 664.1" xml:space="preserve">
<g>
	<path fill="#FFFFFF" d="M1147.2,581.5c6.9,50.2,23.6,109.5,41.8,163.9c6.9-11.2,11-24.4,11-38.6V429.3c0-33.7-22.6-62-53.6-70.5
		C1140.9,428.5,1137.9,515.2,1147.2,581.5z"/>
	<path fill="#FFFFFF" d="M1139.9,357.4c-4.1-0.8-8.5-1.2-12.8-1.2h-11.2c-3.9,59.1-7.3,154.6,4.7,223.3
		c9.8,56.3,35.6,125.8,57.7,179c2.2-2.2,4.1-4.5,6.1-6.9c-18.7-55.9-36.2-117.6-43.5-169.6C1131.6,515.2,1134.6,427.7,1139.9,357.4z
		"/>
	<path fill="#FFFFFF" d="M946.9,514.2c49.8-41.8,104.2-110.1,139.4-157.7h-20.1c-41,49-90.4,102.8-136.1,139.2
		c-41,32.5-96.1,64.8-148.1,91.8v29.1C834,590,901.6,552.2,946.9,514.2z"/>
	<path fill="#FFFFFF" d="M1058.2,356.4h-203c-40.2,0-72.9,32.7-72.9,72.9v151.1c50.8-26.6,104.4-58.1,144.2-89.6
		C970.5,455.7,1018.2,404.1,1058.2,356.4z"/>
	<g>
		<path fill="#FFFFFF" d="M782,682.2v21.7c0,40.2,32.7,72.9,72.9,72.9h194.6c-30.5-17.9-61.4-34.1-89.8-45.9
			C908.7,709.7,842.1,693.8,782,682.2z"/>
		<path fill="#FFFFFF" d="M979.6,698.9c-58.1-21.1-139-33.9-197.5-41v17.7c60.7,11.6,128.4,28,180,49.2c31.5,13,66,31.5,99.8,51.8
			h67.4C1083.4,747.9,1027.4,716.2,979.6,698.9z"/>
	</g>
</g>
</svg>
