<?xml version="1.0" encoding="utf-8"?>
<!-- Generator: Adobe Illustrator 18.0.0, SVG Export Plug-In . SVG Version: 6.00 Build 0)  -->
<!DOCTYPE svg PUBLIC "-//W3C//DTD SVG 1.1//EN" "http://www.w3.org/Graphics/SVG/1.1/DTD/svg11.dtd">
<svg version="1.1" id="Layer_1" xmlns="http://www.w3.org/2000/svg" xmlns:xlink="http://www.w3.org/1999/xlink" x="0px" y="0px"
	 viewBox="0 0 173.8 173.8" enable-background="new 0 0 173.8 173.8" xml:space="preserve">
<path fill="#FFFFFF" d="M173.8,76.9c0-48-38.9-76.9-86.9-76.9c-0.1,0-0.1,0-0.2,0C38.8,0.1,0,39,0,86.9c0,47.9,38.8,86.8,86.7,86.9
	v-11.5c-41.6-0.1-75.2-33.8-75.2-75.4c0-41.6,33.7-75.3,75.2-75.4c0.1,0,0.1,0,0.2,0c41.7,0,75.4,23.8,75.4,65.4
	c0,41.7-33.8,65.4-75.4,65.4c-0.1,0-0.1,0-0.2,0v11.5c0.1,0,0.1,0,0.2,0c0.3,0,0.6,0,0.9,0l33.5,19.7l22.9-0.1l-36.6-21.5
	C145.6,144.7,173.8,117.7,173.8,76.9z"/>
</svg>
