<?xml version="1.0" encoding="utf-8"?>
<!-- Generator: Adobe Illustrator 18.1.0, SVG Export Plug-In . SVG Version: 6.00 Build 0)  -->
<!DOCTYPE svg PUBLIC "-//W3C//DTD SVG 1.1//EN" "http://www.w3.org/Graphics/SVG/1.1/DTD/svg11.dtd">
<svg version="1.1" xmlns="http://www.w3.org/2000/svg" xmlns:xlink="http://www.w3.org/1999/xlink" x="0px" y="0px"
	 viewBox="0 0 554.6 75.8" enable-background="new 0 0 554.6 75.8" xml:space="preserve">
<g id="Layer_2">
</g>
<g id="Layer_1">
	<path fill="#FFFFFF" d="M75.8,33.6C75.8,12.6,58.9,0,37.9,0c0,0,0,0-0.1,0C16.9,0,0,17,0,37.9s16.9,37.9,37.8,37.9v-5
		C19.7,70.8,5,56.1,5,37.9S19.7,5.1,37.8,5c0,0,0,0,0.1,0c18.2,0,32.9,10.4,32.9,28.5c0,18.2-14.7,28.5-32.9,28.5c0,0,0,0-0.1,0v5
		c0,0,0,0,0.1,0c0.1,0,0.3,0,0.4,0l14.6,8.6l10,0l-16-9.4C63.5,63.1,75.8,51.4,75.8,33.6z"/>
	<g>
		<path fill="#FFFFFF" d="M131.8,26.4c-1.3-1.3-3.2-2.8-5.3-3.8c-2.1-1-4.7-1.6-7-1.6c-9.4,0-16.4,7.6-16.4,17
			c0,11.1,9,16.6,16.5,16.6c2.8,0,5.4-0.8,7.6-1.9c2.3-1.2,4-2.7,4.7-3.4V55c-4.5,3.2-9.2,4-12.3,4c-12.1,0-21.1-9.2-21.1-21
			c0-12.2,9.1-21.2,21.4-21.2c2.4,0,7.2,0.3,12.1,4V26.4z"/>
		<path fill="#FFFFFF" d="M144.6,17.4V54h11.3v4.3h-15.8V17.4H144.6z"/>
		<path fill="#FFFFFF" d="M166.5,17.4v40.8H162V17.4H166.5z"/>
		<path fill="#FFFFFF" d="M177,58.3V15.7l31.8,33.4V17.4h4.5v42.7l-31.8-33.4v31.5H177z"/>
		<path fill="#FFFFFF" d="M234,21.7v36.5h-4.5V21.7h-9.9v-4.3h24.4v4.3H234z"/>
		<path fill="#FFFFFF" d="M270.8,17.4c2.8,0,6.9,0.2,9.9,2.3c2.4,1.6,4.5,4.7,4.5,9.1c0,6.2-4.1,10.8-10.3,11.3l13,18.2h-5.5
			l-12.4-17.9h-1.2v17.9h-4.5V17.4H270.8z M268.8,36.4h2.9c5.6,0,9-2.7,9-7.5c0-2.3-0.7-4.5-3.2-6c-1.8-1-3.9-1.2-5.9-1.2h-2.8V36.4
			z"/>
		<path fill="#FFFFFF" d="M292.8,37.9c0-12.2,9.5-21.1,21.2-21.1s21.2,8.9,21.2,21.1C335.3,50,325.8,59,314,59
			C302.2,59,292.8,50,292.8,37.9z M297.4,37.9c0,9.4,7.4,16.8,16.6,16.8s16.6-7.5,16.6-16.8c0-9.4-7.4-16.8-16.6-16.8
			S297.4,28.5,297.4,37.9z"/>
		<path fill="#FFFFFF" d="M350.9,17.4c2.3,0,6.4,0.2,9.4,2.6c1.3,1,3.7,3.5,3.7,8.4c0,2-0.4,5.6-4,8c5.7,1.4,7.8,6.4,7.8,10.3
			s-2,7.1-4.2,8.8c-3.2,2.6-7,2.7-9.8,2.7h-10.2V17.4H350.9z M348.1,35.4h3.4c2.4,0,8-0.5,8-6.8c0-6.7-6.6-6.9-7.9-6.9h-3.5V35.4z
			 M348.1,54h5.2c2.6,0,5.2-0.2,7.2-1.7c1.6-1.2,2.7-3.2,2.7-5.6c0-3.2-1.9-5.1-3.5-6c-1.5-0.9-3.7-1.2-6.9-1.2h-4.7V54z"/>
		<path fill="#FFFFFF" d="M380.5,17.4v40.8H376V17.4H380.5z"/>
		<path fill="#FFFFFF" d="M391.1,58.3V15.7l31.8,33.4V17.4h4.5v42.7l-31.8-33.4v31.5H391.1z"/>
		<path fill="#FFFFFF" d="M456.2,25.5c-0.6-1.1-1.5-2.3-2.4-3.1c-0.8-0.6-2.3-1.4-4.6-1.4c-4,0-6.9,2.5-6.9,6.3
			c0,1.6,0.4,2.5,1.5,3.5c1.2,1.2,2.8,1.9,4.3,2.6l3.9,1.7c2.4,1,4.6,2.1,6.3,3.9c2.1,2.1,2.9,4.5,2.9,7.4c0,7.5-5.6,12.5-12.9,12.5
			c-2.7,0-6.1-0.6-8.9-3.3c-2-2-3.2-4.8-3.8-7.2l4.4-1.2c0.3,2.1,1.3,4,2.4,5.2c1.8,1.8,3.8,2.3,5.9,2.3c5.6,0,8.2-4,8.2-8.1
			c0-1.8-0.6-3.4-2-4.8c-1.2-1.1-2.8-1.8-4.9-2.8l-3.7-1.7c-1.6-0.7-3.6-1.6-5.4-3.4c-1.8-1.7-2.8-3.6-2.8-6.7
			c0-6.3,4.8-10.5,11.4-10.5c2.5,0,4.5,0.5,6.5,1.8c1.7,1.1,3.1,2.8,4,4.5L456.2,25.5z"/>
		<path fill="#FFFFFF" d="M467.5,37.9c0-12.2,9.5-21.1,21.2-21.1s21.2,8.9,21.2,21.1c0,12.1-9.4,21.1-21.2,21.1
			C476.9,59,467.5,50,467.5,37.9z M472.1,37.9c0,9.4,7.4,16.8,16.6,16.8s16.6-7.5,16.6-16.8c0-9.4-7.4-16.8-16.6-16.8
			S472.1,28.5,472.1,37.9z"/>
		<path fill="#FFFFFF" d="M518.2,58.3V15.7l31.8,33.4V17.4h4.5v42.7l-31.8-33.4v31.5H518.2z"/>
	</g>
</g>
</svg>
