<?xml version="1.0" encoding="utf-8"?>
<!-- Generator: Adobe Illustrator 18.0.0, SVG Export Plug-In . SVG Version: 6.00 Build 0)  -->
<!DOCTYPE svg PUBLIC "-//W3C//DTD SVG 1.1//EN" "http://www.w3.org/Graphics/SVG/1.1/DTD/svg11.dtd">
<svg version="1.1" id="Layer_1" xmlns="http://www.w3.org/2000/svg" xmlns:xlink="http://www.w3.org/1999/xlink" x="0px" y="0px"
	 viewBox="523.2 108.5 935.7 935.7" enable-background="new 523.2 108.5 935.7 935.7" xml:space="preserve">
<g>
	<path fill="#FFFFFF" d="M1148.7,704.5c-7.2,0.5-14.2-3.2-16.4-16.4c-0.5-2.7-0.5-7.8-0.3-13.4l9.1-116.9l39.7-3.5l3.8-48l-39.7,3.2
		l6.2-84.7l-47.2,4l-6.2,84.7l-46.1,4l6.7-90.9c1.6-31.1,13.9-51.2,31.9-60.6c2.7-1.3,6.4-2.4,8.3-2.4c-4,9.1-2.4,22,6.4,30.3
		c10.7,10.2,27.6,9.7,37.8-1.1c8.6-9.4,8-25.5-2.4-38.9c-8-10.5-19.6-17.4-40.2-18.2c-37.5-1.6-82.6,27.9-89,97.1l-6.7,89l-14.2,1.3
		l-3.8,48l14.5-1.3l-14.2,181c-1.6,31.1-13.9,51.5-31.6,60.6c-2.7,1.3-6.4,2.4-8.6,2.4c4-9.1,2.4-22-6.4-30.3
		c-10.7-10.2-27.6-9.7-37.8,1.1c-8.6,9.4-8,25.7,2.4,39.1c8,10.5,19.6,17.4,40.2,18.2c37.5,1.6,82.3-27.9,89-96.8V745l13.9-179.1
		l46.1-4c-2.4,29.2-10.2,122.5-7.8,138.1c4.8,32.2,27.9,44,52.3,42.1c18.2-1.3,40.5-8.3,61.9-34.9l-18.5-20.6
		C1165,700.4,1158.3,703.7,1148.7,704.5"/>
	<path fill="#FFFFFF" d="M922.4,489.2c12.1,9.4,28.7,8,37.5-3.2c8.6-11,5.9-27.6-5.9-37c-12.1-9.4-28.7-8-37.5,3.2
		C907.6,463.1,910.3,479.8,922.4,489.2"/>
	<polygon fill="#FFFFFF" points="958,525.9 910.8,530.2 893.4,753 940.6,749 	"/>
	<polygon fill="#FFFFFF" points="781.6,466.1 823.4,462.3 800.1,761.3 847.3,757 873.8,417.6 784.8,425.3 	"/>
	<path fill="#FFFFFF" d="M991,173c-222.6,0-403.3,181-403.3,403.3c0,222.6,181,403.3,403.3,403.3c222.6,0,403.3-181,403.3-403.3
		S1213.3,173,991,173 M991,931.6c-195.7,0-355.3-159.3-355.3-355.3C635.7,380.6,795,221,991,221c195.7,0,355.3,159.3,355.3,355.3
		C1346,772.3,1186.7,931.6,991,931.6"/>
</g>
</svg>
