<svg xmlns="http://www.w3.org/2000/svg" viewBox="523.2 108.5 935.7 935.7" enable-background="new 523.2 108.5 935.7 935.7"><g fill="#fff"><path d="M1148.7 704.5c-7.2.5-14.2-3.2-16.4-16.4-.5-2.7-.5-7.8-.3-13.4l9.1-116.9 39.7-3.5 3.8-48-39.7 3.2 6.2-84.7-47.2 4-6.2 84.7-46.1 4 6.7-90.9c1.6-31.1 13.9-51.2 31.9-60.6 2.7-1.3 6.4-2.4 8.3-2.4-4 9.1-2.4 22 6.4 30.3 10.7 10.2 27.6 9.7 37.8-1.1 8.6-9.4 8-25.5-2.4-38.9-8-10.5-19.6-17.4-40.2-18.2-37.5-1.6-82.6 27.9-89 97.1l-6.7 89-14.2 1.3-3.8 48 14.5-1.3-14.2 181c-1.6 31.1-13.9 51.5-31.6 60.6-2.7 1.3-6.4 2.4-8.6 2.4 4-9.1 2.4-22-6.4-30.3-10.7-10.2-27.6-9.7-37.8 1.1-8.6 9.4-8 25.7 2.4 39.1 8 10.5 19.6 17.4 40.2 18.2 37.5 1.6 82.3-27.9 89-96.8v-.1l13.9-179.1 46.1-4c-2.4 29.2-10.2 122.5-7.8 138.1 4.8 32.2 27.9 44 52.3 42.1 18.2-1.3 40.5-8.3 61.9-34.9l-18.5-20.6c-16.8 13.8-23.5 17.1-33.1 17.9M922.4 489.2c12.1 9.4 28.7 8 37.5-3.2 8.6-11 5.9-27.6-5.9-37-12.1-9.4-28.7-8-37.5 3.2-8.9 10.9-6.2 27.6 5.9 37"/><path d="M958 525.9l-47.2 4.3-17.4 222.8 47.2-4zM781.6 466.1l41.8-3.8-23.3 299 47.2-4.3 26.5-339.4-89 7.7zM991 173c-222.6 0-403.3 181-403.3 403.3 0 222.6 181 403.3 403.3 403.3 222.6 0 403.3-181 403.3-403.3s-181-403.3-403.3-403.3m0 758.6c-195.7 0-355.3-159.3-355.3-355.3 0-195.7 159.3-355.3 355.3-355.3 195.7 0 355.3 159.3 355.3 355.3-.3 196-159.6 355.3-355.3 355.3"/></g></svg>