<svg xmlns="http://www.w3.org/2000/svg" viewBox="31 36.3 347.2 347.2" enable-background="new 31 36.3 347.2 347.2"><path fill="#fff" d="M308.8 223.8v-127.6h-208.5v127.5s-5.3 77.5 104.3 123.9c109.6-46.3 104.2-123.8 104.2-123.8zm-51.2-102.1v-.2c0-2.3 4.4-15.5 4.4-15.5l.1-.3h.3c2.2.4 5.1 1.3 5.1 1.3l.4.1-.2.3s-3.8 8.4-4.6 13.8c-.1.4-.1.8-.1 1.1 0 1.3.4 1.4.8 1.4.7 0 2-1 2.1-1.3 2.2-3.8 5.9-13.6 5.9-13.6l.1-.4 5.2 3.1-.1.3c-2.2 6.6-7.3 14.2-7.3 14.2s-2.2 4.4-6 4.4h-.2c-1.5 2.7-1.7 11.3-1.7 11.3v.3h-4.2v-.4s1.3-10.1 1.3-13.1v-.6c-1.2-1.3-1.5-2.6-1.5-3.8 0-1 .2-1.8.2-2.4zm-12.6 48.2c1-2.4 5.1-12.5 6.5-17.8l.1-.2h3.9l-.1.4c-.9 4.6-1.2 13-2.3 18.7l-.1.3-8.2-1 .2-.4zm-5.8.2l-.1.3-8.1-3 .3-.4c1.6-2 11.2-10.3 14-15l.1-.2h4l-.3.5c-2.2 4.3-7.3 12.8-9.9 17.8zm3-20.7v-4.7h27.3v4.7h-27.3zm-2.5-41l.1.4s3.7 9.8 5.9 13.6c.1.3 1.4 1.3 2.1 1.3.4 0 .7-.2.8-1.4 0-.3 0-.7-.1-1.1-.8-5.4-4.6-13.8-4.6-13.8l-.2-.3.4-.1s3-1 5.1-1.3h.3l.1.3s4.4 13.2 4.4 15.5v.4c0 .6.2 1.4.2 2.4 0 1.1-.3 2.4-1.4 3.7v.2c0 2.2 1.3 13.8 1.3 13.8v.4h-4.2v-.3s-.3-8.8-1.8-11.6h-.2c-3.8 0-6-4.4-6-4.4s-5.1-7.6-7.3-14.2l-.1-.3 5.2-3.2zm-19.5 17.3l.3.2s8.8 5.7 12.8 7.4c.1 0 .5.1 1 .1.9 0 1.8-.3 1.8-.8 0-.3-.3-1-1.2-1.9-3.8-3.8-11.9-8.3-11.9-8.3l-.3-.2.2-.3s1.8-2.5 3.3-4.1l.2-.2.2.2s11.8 8.3 12.9 10c.5 1 2.8 2.3 2.8 5.3 0 .4-.1.9-.2 1.3 4.8 2.6 5.7 7.5 5.8 7.6l.1.4h-4.8l-.1-.2s-1.6-3.5-3-3.9c-1.1.9-2.3 1.3-3.6 1.3h-.1c-2.2 0-4.1-1-4.1-1s-8.6-3.1-14.3-7l-.2-.2 2.4-5.7zm-37.2-8l.2.2c1.5 1.6 3.3 4.1 3.3 4.1l.2.3-.3.2s-8.1 4.5-11.9 8.3c-.9.9-1.2 1.6-1.2 1.9 0 .5.9.8 1.8.8.4 0 .9-.1 1-.1 4-1.7 12.8-7.4 12.8-7.4l.3-.2 2.3 5.6-.2.2c-5.7 3.9-14.3 7-14.3 7s-2 1-4.2 1h-.1c-1.3 0-2.6-.4-3.7-1.5-1.3.7-2.7 3.8-2.7 3.8l-.1.2h-4.8l.1-.4s.9-4.9 5.6-7.5c-.1-.4-.1-.8-.1-1.2 0-2.9 2.3-4.3 2.8-5.3 1-1.7 12.8-9.9 12.9-10h.3zm-24.4 34.2l.1.2c1.3 5.2 5.5 15.4 6.5 17.8l.2.4-8.2 1-.1-.3c-1.1-5.6-1.2-14-2.1-18.7l-.1-.4h3.7zm-18.6-2.5v-4.7h27.3v4.7h-27.3zm21 3l-.3-.5h4l.1.2c2.8 4.7 12.4 13 14 15l.3.4-8.1 3-.1-.3c-2.6-5.1-7.7-13.6-9.9-17.8zm-5.6-30.7v-.2c0-2.3 4.4-15.5 4.4-15.5l.1-.3h.3c2.2.4 5.1 1.3 5.1 1.3l.4.1-.2.3s-3.8 8.4-4.6 13.8c-.1.4-.1.8-.1 1.1 0 1.3.4 1.4.8 1.4.7 0 2-1 2.1-1.3 2.2-3.8 5.9-13.6 5.9-13.6l.1-.4 5.2 3.1-.1.3c-2.2 6.6-7.3 14.2-7.3 14.2s-2.2 4.4-6 4.4h-.2c-1.5 2.7-1.7 11.3-1.7 11.3v.3h-4.2v-.4s1.3-10.1 1.3-13.1v-.6c-1.2-1.3-1.5-2.6-1.5-3.8 0-1 .2-1.8.2-2.4zm-17.9-13.3l.1.4s3.7 9.8 5.9 13.6c.1.3 1.4 1.3 2.1 1.3.4 0 .7-.2.8-1.4 0-.3 0-.7-.1-1.1-.8-5.4-4.6-13.8-4.6-13.8l-.2-.3.4-.1s3-1 5.1-1.3h.3l.1.3s4.4 13.2 4.4 15.5v.4c0 .6.2 1.4.2 2.4 0 1.1-.3 2.4-1.4 3.7v.2c0 2.2 1.3 13.8 1.3 13.8v.4h-4.2v-.3s-.3-8.8-1.8-11.6h-.2c-3.8 0-6-4.4-6-4.4s-5.1-7.6-7.3-14.2l-.1-.3 5.2-3.2zm-21.9 22.9l2.3-5.6.3.2s8.8 5.7 12.8 7.4c.1 0 .5.1 1 .1.9 0 1.8-.3 1.8-.8 0-.3-.3-1-1.2-1.9-3.8-3.8-11.9-8.3-11.9-8.3l-.3-.2.2-.3s1.8-2.5 3.3-4.1l.2-.2.2.2s11.8 8.3 12.9 10c.5 1 2.8 2.3 2.8 5.3 0 .4-.1.9-.2 1.3 4.8 2.6 5.7 7.5 5.8 7.6l.1.4h-4.7l-.1-.2s-1.6-3.5-3-3.9c-1.1.9-2.3 1.3-3.6 1.3h-.1c-2.2 0-4.1-1-4.1-1s-8.6-3.1-14.3-7l-.2-.3zm21.3 39.1l-8.1-3 .3-.4c1.6-2 11.2-10.3 14-15l.1-.2h4l-.3.5c-2.2 4.2-7.3 12.7-9.9 17.8l-.1.3zm5.9-.5c1-2.4 5.1-12.5 6.5-17.8l.1-.2h3.9l-.1.4c-.9 4.6-1.2 13-2.3 18.7l-.1.3-8.2-1 .2-.4zm23.9 108.3l2.3-5.6.3.2s8.8 5.7 12.8 7.4c.1 0 .5.1 1 .1.9 0 1.8-.3 1.8-.8 0-.3-.3-1-1.2-1.9-3.8-3.8-11.9-8.3-11.9-8.3l-.3-.2.2-.3s1.8-2.5 3.3-4.1l.2-.2.2.2s11.8 8.3 12.9 10c.5 1 2.8 2.3 2.8 5.3 0 .4-.1.9-.2 1.3 4.8 2.6 5.7 7.5 5.8 7.6l.1.4h-4.8l-.1-.2s-1.6-3.5-3-3.9c-1.1.9-2.3 1.3-3.6 1.3h-.1c-2.2 0-4.1-.9-4.1-.9s-8.6-3.1-14.3-7l-.1-.4zm30.7-10.1c-.8-5.4-4.6-13.8-4.6-13.8l-.2-.3.4-.1s3-1 5.1-1.3h.3l.1.3s4.4 13.2 4.4 15.5v.4c0 .6.2 1.4.2 2.4 0 1.1-.3 2.4-1.4 3.7v.2c0 2.2 1.3 13.8 1.3 13.8v.4h-4.2v-.3s-.3-8.8-1.8-11.6h-.2c-3.8 0-6-4.4-6-4.4s-5.1-7.6-7.3-14.2l-.1-.3 5.2-3.1.1.4s3.7 9.8 5.9 13.6c.1.3 1.4 1.3 2.1 1.3.4 0 .7-.2.8-1.4 0-.5-.1-.8-.1-1.2zm-9.4 49.2l-8.1-3 .3-.4c1.6-2 11.2-10.3 14-15l.1-.2h4l-.3.5c-2.2 4.2-7.3 12.7-9.9 17.8l-.1.3zm16.2-18.1c-.9 4.6-1.2 13-2.3 18.7l-.1.3-8.2-1 .2-.4c1-2.4 5.1-12.5 6.5-17.8l.1-.2h3.9l-.1.4zm-13.1-2.9v-4.7h27.3v4.7h-27.3zm15.4-27.6v-.2c0-2.3 4.4-15.5 4.4-15.5l.1-.3h.3c2.2.4 5.1 1.3 5.1 1.3l.4.1-.2.3s-3.8 8.4-4.6 13.8c-.1.4-.1.8-.1 1.1 0 1.3.4 1.4.8 1.4.7 0 2-1 2.1-1.3 2.2-3.8 5.9-13.6 5.9-13.6l.1-.4 5.2 3.1-.1.2c-2.2 6.6-7.3 14.2-7.3 14.2s-2.2 4.4-6 4.4h-.2c-1.5 2.7-1.7 11.3-1.7 11.3v.3h-4.2v-.4s1.3-10.1 1.3-13.1v-.6c-1.2-1.3-1.5-2.6-1.5-3.8 0-1 .2-1.8.2-2.4v.1zm1.6 49.5l-.1-.3c-1.1-5.6-1.2-14-2.1-18.7l-.1-.4h3.7l.1.2c1.3 5.2 5.5 15.4 6.5 17.8l.2.4-8.2 1zm14-.9l-.1-.3c-2.6-5-7.6-13.5-9.9-17.8l-.3-.5h4l.1.2c2.8 4.7 12.4 13 14 15l.3.4-8.1 3zm20.3-38.7c-5.7 3.9-14.3 7-14.3 7s-2 1-4.2 1h-.1c-1.3 0-2.6-.4-3.7-1.5-1.3.7-2.7 3.8-2.7 3.8l-.1.2h-4.8l.1-.4s.9-4.9 5.6-7.5c-.1-.4-.1-.8-.1-1.2 0-2.9 2.3-4.3 2.8-5.3 1-1.7 12.8-9.9 12.9-10l.2-.2.2.2c1.5 1.6 3.3 4.1 3.3 4.1l.2.3-.3.2s-8.1 4.5-11.9 8.3c-.9.9-1.2 1.6-1.2 1.9 0 .5.9.8 1.8.8.4 0 .9-.1 1-.1 4-1.7 12.8-7.4 12.8-7.4l.3-.2 2.3 5.6-.1.4zm-32.7-39c-1.8 1.9-4.3 2-5.1 2h-.5c-.8 0-3.3-.1-5.1-2l-56 14.7v-52.7h5.4l8.5-13.2v-1.9l1.5 1.5s.1.1.5.3c.4.2 1.1.4 2.2.4 2 0 5.5-.8 10.8-4 8.2-5 14.7-6.6 19.7-6.6 7.3 0 11.3 3.4 12.8 5.1 1.5-1.6 5.5-5.1 12.8-5.1 5 0 11.5 1.7 19.7 6.6 5.3 3.2 8.8 4 10.9 4 1.1 0 1.8-.2 2.2-.4.4-.2.5-.3.5-.3l1.5-1.5v1.9l8.5 13.2h5.4v52.7l-56.2-14.7zm49.5-68.4l-.1-.3c-1.1-5.6-1.2-14-2.1-18.7l-.1-.4h3.7l.1.2c1.3 5.2 5.5 15.4 6.5 17.8l.2.4-8.2 1zm14-.8l-.1-.3c-2.6-5-7.6-13.5-9.9-17.8l-.3-.5h4l.1.2c2.8 4.7 12.4 13 14 15l.3.4-8.1 3zm20.4-38.7c-5.7 3.9-14.3 7-14.3 7s-2 1-4.2 1h-.1c-1.3 0-2.6-.4-3.7-1.5-1.3.7-2.7 3.8-2.7 3.8l-.1.2h-4.8l.1-.4s.9-4.9 5.6-7.5c-.1-.4-.1-.8-.1-1.2 0-2.9 2.3-4.3 2.8-5.3 1-1.7 12.8-9.9 12.9-10l.2-.2.2.2c1.5 1.6 3.3 4.1 3.3 4.1l.2.3-.3.2s-8.1 4.5-11.9 8.3c-.9.9-1.2 1.6-1.2 1.9 0 .5.9.8 1.8.8.4 0 .9-.1 1-.1 4-1.7 12.8-7.4 12.8-7.4l.3-.2 2.3 5.6-.1.4zm-41.7 59.9v41l7.4 11.3-.1-40.9-7.3-11.4zm-3.8 43.8c-2.5 0-6.1-1.2-12.1-5-7.9-5.1-14.1-6.7-18.7-6.7-4.3 0-7.3 1.4-9.3 2.7-1.5 1-2.4 2-2.7 2.4v.9c.5 2.5 6.1 3.6 6.2 3.6l46.9 12.3-7.3-11.2c-.6.5-1.5 1-3 1zm-91.2-43.8l-7.3 11.4-.1 41.1 7.4-11.5v-41zm46.6 37.2c-.3-.4-1.2-1.4-2.7-2.4-2-1.3-5-2.7-9.3-2.7-4.7 0-10.8 1.6-18.7 6.7-6 3.9-9.7 5-12.1 5h-.1c-1.4 0-2.3-.5-2.9-1l-7.2 11.2 46.9-12.2s5.6-1.1 6.1-3.6v-1z"/><g fill="#fff"><path d="M200.9 182.5c-2.6-1.7-5.6-2.6-9.1-2.6-5.5 0-11.7 2.1-18.7 6.3-4.7 2.9-8.7 4.3-11.9 4.3-.8 0-1.5-.1-2.1-.2v42.1s0 .1.2.2c.2.2.6.5 1.6.5 1.4 0 4.6-.6 10.9-4.7 7.2-4.7 13.9-7 19.8-7 5.8 0 9.7 2.3 11.7 4v-40.7c-.4-.6-1.2-1.4-2.4-2.2zM248 190.6c-3.2 0-7.3-1.4-12-4.3-6.9-4.2-13.2-6.3-18.7-6.3-3.5 0-6.6.9-9.1 2.6-1.4.9-2.1 1.8-2.5 2.2v40.7c2-1.7 5.9-4 11.7-4 6 0 12.6 2.4 19.8 7 6.4 4.1 9.6 4.7 10.9 4.7 1 0 1.4-.3 1.7-.5.1-.1.2-.2.2-.3v-42.1c-.6.2-1.3.3-2 .3z"/></g><path fill="#D0D2D3" d="M204.4 228.5l-.8 1.5v-1.1c-.3-.4-1.2-1.4-2.7-2.4-2-1.3-5-2.7-9.3-2.7-4.7 0-10.8 1.6-18.7 6.7-6 3.9-9.7 5-12.1 5h-.1c-1.4 0-2.3-.5-2.9-1l-7.8 12.2 47.7-12.4s7.1-1 6.8-5.5c-.1-.2-.1-.2-.1-.3z"/><path fill="#A6A8AB" d="M156.9 191.6l-8.2 12.8-.1 41 8.3-12.9zM251.9 191.6v40.9l8.3 12.7-.1-40.8z"/><path fill="#D0D2D3" d="M251 234.4c-.6.5-1.5 1-2.9 1h-.1c-2.4 0-6-1.2-12.1-5-7.9-5.1-14.1-6.7-18.7-6.7-4.3 0-7.3 1.4-9.3 2.7-1.5 1-2.4 2-2.7 2.4v1.1l-.8-1.3v.1c-.3 4.5 6.8 5.5 6.8 5.5l47.8 12.4-8-12.2z"/></svg>