<?xml version="1.0" encoding="utf-8"?>
<!-- Generator: Adobe Illustrator 18.0.0, SVG Export Plug-In . SVG Version: 6.00 Build 0)  -->
<!DOCTYPE svg PUBLIC "-//W3C//DTD SVG 1.1//EN" "http://www.w3.org/Graphics/SVG/1.1/DTD/svg11.dtd">
<svg version="1.1" id="Layer_1" xmlns="http://www.w3.org/2000/svg" xmlns:xlink="http://www.w3.org/1999/xlink" x="0px" y="0px"
	 viewBox="31 36.3 347.2 347.2" enable-background="new 31 36.3 347.2 347.2" xml:space="preserve">
<g>
	<g>
		<g>
			<path fill="#FFFFFF" d="M308.8,223.8V96.2H100.3v127.5c0,0-5.3,77.5,104.3,123.9C314.2,301.3,308.8,223.8,308.8,223.8z
				 M257.6,121.7c0-0.1,0-0.1,0-0.2c0-2.3,4.4-15.5,4.4-15.5l0.1-0.3l0.3,0c2.2,0.4,5.1,1.3,5.1,1.3l0.4,0.1l-0.2,0.3
				c0,0-3.8,8.4-4.6,13.8c-0.1,0.4-0.1,0.8-0.1,1.1c0,1.3,0.4,1.4,0.8,1.4c0.7,0,2-1,2.1-1.3c2.2-3.8,5.9-13.6,5.9-13.6l0.1-0.4
				l5.2,3.1l-0.1,0.3c-2.2,6.6-7.3,14.2-7.3,14.2c0,0-2.2,4.4-6,4.4h0c-0.1,0-0.2,0-0.2,0c-1.5,2.7-1.7,11.3-1.7,11.3l0,0.3h-0.3
				l-3.5,0h-0.4l0-0.4c0,0,1.3-10.1,1.3-13.1c0-0.3,0-0.5,0-0.6c-1.2-1.3-1.5-2.6-1.5-3.8c0-1,0.2-1.8,0.2-2.4
				C257.6,121.8,257.6,121.8,257.6,121.7z M245,169.9c1-2.4,5.1-12.5,6.5-17.8l0.1-0.2h3.9l-0.1,0.4c-0.9,4.6-1.2,13-2.3,18.7
				l-0.1,0.3l-8.2-1L245,169.9z M239.2,170.1l-0.1,0.3l-8.1-3l0.3-0.4c1.6-2,11.2-10.3,14-15l0.1-0.2h4l-0.3,0.5
				C246.9,156.6,241.8,165.1,239.2,170.1z M242.2,149.4v-4.7h27.3v4.7H242.2z M239.7,108.4l0.1,0.4c0,0,3.7,9.8,5.9,13.6
				c0.1,0.3,1.4,1.3,2.1,1.3c0.4,0,0.7-0.2,0.8-1.4c0-0.3,0-0.7-0.1-1.1c-0.8-5.4-4.6-13.8-4.6-13.8l-0.2-0.3l0.4-0.1
				c0,0,3-1,5.1-1.3l0.3,0l0.1,0.3c0,0,4.4,13.2,4.4,15.5v0.2c0,0.1,0,0.1,0,0.2c0,0.6,0.2,1.4,0.2,2.4c0,1.1-0.3,2.4-1.4,3.7
				c0,0,0,0.1,0,0.2c0,2.2,1.3,13.8,1.3,13.8l0,0.4l-0.4,0l-3.8,0l0-0.3c0,0-0.3-8.8-1.8-11.6c-0.1,0-0.2,0-0.2,0
				c-3.8,0-6-4.4-6-4.4c0,0-5.1-7.6-7.3-14.2l-0.1-0.3L239.7,108.4z M220.2,125.7l0.3,0.2c0,0,8.8,5.7,12.8,7.4c0.1,0,0.5,0.1,1,0.1
				c0.9,0,1.8-0.3,1.8-0.8c0-0.3-0.3-1-1.2-1.9c-3.8-3.8-11.9-8.3-11.9-8.3l-0.3-0.2l0.2-0.3c0,0,1.8-2.5,3.3-4.1l0.2-0.2l0.2,0.2
				c0,0,11.8,8.3,12.9,10c0.5,1,2.8,2.3,2.8,5.3c0,0.4-0.1,0.9-0.2,1.3c4.8,2.6,5.7,7.5,5.8,7.6l0.1,0.4h-4.8l-0.1-0.2
				c0,0-1.6-3.5-3-3.9c-1.1,0.9-2.3,1.3-3.6,1.3h-0.1c-2.2,0-4.1-1-4.1-1c0,0-8.6-3.1-14.3-7l-0.2-0.2L220.2,125.7z M183,117.7
				l0.2,0.2c1.5,1.6,3.3,4.1,3.3,4.1l0.2,0.3l-0.3,0.2c0,0-8.1,4.5-11.9,8.3c-0.9,0.9-1.2,1.6-1.2,1.9c0,0.5,0.9,0.8,1.8,0.8
				c0.4,0,0.9-0.1,1-0.1c4-1.7,12.8-7.4,12.8-7.4l0.3-0.2l2.3,5.6l-0.2,0.2c-5.7,3.9-14.3,7-14.3,7c0,0-2,1-4.2,1h-0.1
				c-1.3,0-2.6-0.4-3.7-1.5c-1.3,0.7-2.7,3.8-2.7,3.8l-0.1,0.2h-4.8l0.1-0.4c0,0,0.9-4.9,5.6-7.5c-0.1-0.4-0.1-0.8-0.1-1.2
				c0-2.9,2.3-4.3,2.8-5.3c1-1.7,12.8-9.9,12.9-10L183,117.7z M158.6,151.9l0.1,0.2c1.3,5.2,5.5,15.4,6.5,17.8l0.2,0.4l-8.2,1
				l-0.1-0.3c-1.1-5.6-1.2-14-2.1-18.7l-0.1-0.4H158.6z M140,149.4v-4.7h27.3v4.7H140z M161,152.4l-0.3-0.5h4l0.1,0.2
				c2.8,4.7,12.4,13,14,15l0.3,0.4l-8.1,3l-0.1-0.3C168.3,165.1,163.2,156.6,161,152.4z M155.4,121.7c0-0.1,0-0.1,0-0.2
				c0-2.3,4.4-15.5,4.4-15.5l0.1-0.3l0.3,0c2.2,0.4,5.1,1.3,5.1,1.3l0.4,0.1l-0.2,0.3c0,0-3.8,8.4-4.6,13.8
				c-0.1,0.4-0.1,0.8-0.1,1.1c0,1.3,0.4,1.4,0.8,1.4c0.7,0,2-1,2.1-1.3c2.2-3.8,5.9-13.6,5.9-13.6l0.1-0.4l5.2,3.1l-0.1,0.3
				c-2.2,6.6-7.3,14.2-7.3,14.2c0,0-2.2,4.4-6,4.4h0c-0.1,0-0.2,0-0.2,0c-1.5,2.7-1.7,11.3-1.7,11.3l0,0.3h-0.3l-3.5,0h-0.4l0-0.4
				c0,0,1.3-10.1,1.3-13.1c0-0.3,0-0.5,0-0.6c-1.2-1.3-1.5-2.6-1.5-3.8c0-1,0.2-1.8,0.2-2.4C155.4,121.9,155.4,121.8,155.4,121.7z
				 M137.5,108.4l0.1,0.4c0,0,3.7,9.8,5.9,13.6c0.1,0.3,1.4,1.3,2.1,1.3c0.4,0,0.7-0.2,0.8-1.4c0-0.3,0-0.7-0.1-1.1
				c-0.8-5.4-4.6-13.8-4.6-13.8l-0.2-0.3l0.4-0.1c0,0,3-1,5.1-1.3l0.3,0l0.1,0.3c0,0,4.4,13.2,4.4,15.5v0.2c0,0.1,0,0.1,0,0.2
				c0,0.6,0.2,1.4,0.2,2.4c0,1.1-0.3,2.4-1.4,3.7c0,0,0,0.1,0,0.2c0,2.2,1.3,13.8,1.3,13.8l0,0.4l-0.4,0l-3.8,0l0-0.3
				c0,0-0.3-8.8-1.8-11.6c-0.1,0-0.2,0-0.2,0c-3.8,0-6-4.4-6-4.4c0,0-5.1-7.6-7.3-14.2l-0.1-0.3L137.5,108.4z M115.6,131.3l2.3-5.6
				l0.3,0.2c0,0,8.8,5.7,12.8,7.4c0.1,0,0.5,0.1,1,0.1c0.9,0,1.8-0.3,1.8-0.8c0-0.3-0.3-1-1.2-1.9c-3.8-3.8-11.9-8.3-11.9-8.3
				l-0.3-0.2l0.2-0.3c0,0,1.8-2.5,3.3-4.1l0.2-0.2l0.2,0.2c0,0,11.8,8.3,12.9,10c0.5,1,2.8,2.3,2.8,5.3c0,0.4-0.1,0.9-0.2,1.3
				c4.8,2.6,5.7,7.5,5.8,7.6l0.1,0.4H141l-0.1-0.2c0,0-1.6-3.5-3-3.9c-1.1,0.9-2.3,1.3-3.6,1.3h-0.1c-2.2,0-4.1-1-4.1-1
				c0,0-8.6-3.1-14.3-7L115.6,131.3z M136.9,170.4l-8.1-3l0.3-0.4c1.6-2,11.2-10.3,14-15l0.1-0.2h4l-0.3,0.5
				c-2.2,4.2-7.3,12.7-9.9,17.8L136.9,170.4z M142.8,169.9c1-2.4,5.1-12.5,6.5-17.8l0.1-0.2h3.9l-0.1,0.4c-0.9,4.6-1.2,13-2.3,18.7
				l-0.1,0.3l-8.2-1L142.8,169.9z M166.7,278.2l2.3-5.6l0.3,0.2c0,0,8.8,5.7,12.8,7.4c0.1,0,0.5,0.1,1,0.1c0.9,0,1.8-0.3,1.8-0.8
				c0-0.3-0.3-1-1.2-1.9c-3.8-3.8-11.9-8.3-11.9-8.3l-0.3-0.2l0.2-0.3c0,0,1.8-2.5,3.3-4.1l0.2-0.2l0.2,0.2c0,0,11.8,8.3,12.9,10
				c0.5,1,2.8,2.3,2.8,5.3c0,0.4-0.1,0.9-0.2,1.3c4.8,2.6,5.7,7.5,5.8,7.6l0.1,0.4H192l-0.1-0.2c0,0-1.6-3.5-3-3.9
				c-1.1,0.9-2.3,1.3-3.6,1.3h-0.1c-2.2,0-4.1-0.9-4.1-0.9c0,0-8.6-3.1-14.3-7L166.7,278.2z M197.4,268.1
				c-0.8-5.4-4.6-13.8-4.6-13.8l-0.2-0.3l0.4-0.1c0,0,3-1,5.1-1.3l0.3,0l0.1,0.3c0,0,4.4,13.2,4.4,15.5v0.2c0,0.1,0,0.1,0,0.2
				c0,0.6,0.2,1.4,0.2,2.4c0,1.1-0.3,2.4-1.4,3.7c0,0,0,0.1,0,0.2c0,2.2,1.3,13.8,1.3,13.8l0,0.4l-0.4,0l-3.8,0l0-0.3
				c0,0-0.3-8.8-1.8-11.6c-0.1,0-0.2,0-0.2,0c-3.8,0-6-4.4-6-4.4c0,0-5.1-7.6-7.3-14.2l-0.1-0.3l5.2-3.1l0.1,0.4
				c0,0,3.7,9.8,5.9,13.6c0.1,0.3,1.4,1.3,2.1,1.3c0.4,0,0.7-0.2,0.8-1.4C197.5,268.8,197.4,268.5,197.4,268.1z M188,317.3l-8.1-3
				l0.3-0.4c1.6-2,11.2-10.3,14-15l0.1-0.2h4l-0.3,0.5c-2.2,4.2-7.3,12.7-9.9,17.8L188,317.3z M204.2,299.2
				c-0.9,4.6-1.2,13-2.3,18.7l-0.1,0.3l-8.2-1l0.2-0.4c1-2.4,5.1-12.5,6.5-17.8l0.1-0.2h3.9L204.2,299.2z M191.1,296.3v-4.7h27.3
				v4.7H191.1z M206.5,268.7c0-0.1,0-0.1,0-0.2c0-2.3,4.4-15.5,4.4-15.5l0.1-0.3l0.3,0c2.2,0.4,5.1,1.3,5.1,1.3l0.4,0.1l-0.2,0.3
				c0,0-3.8,8.4-4.6,13.8c-0.1,0.4-0.1,0.8-0.1,1.1c0,1.3,0.4,1.4,0.8,1.4c0.7,0,2-1,2.1-1.3c2.2-3.8,5.9-13.6,5.9-13.6l0.1-0.4
				l5.2,3.1l-0.1,0.2c-2.2,6.6-7.3,14.2-7.3,14.2c0,0-2.2,4.4-6,4.4h0c-0.1,0-0.2,0-0.2,0c-1.5,2.7-1.7,11.3-1.7,11.3l0,0.3h-0.3
				l-3.5,0h-0.4l0-0.4c0,0,1.3-10.1,1.3-13.1c0-0.3,0-0.5,0-0.6c-1.2-1.3-1.5-2.6-1.5-3.8c0-1,0.2-1.8,0.2-2.4
				C206.5,268.8,206.5,268.7,206.5,268.7z M208.1,318.2l-0.1-0.3c-1.1-5.6-1.2-14-2.1-18.7l-0.1-0.4h3.7l0.1,0.2
				c1.3,5.2,5.5,15.4,6.5,17.8l0.2,0.4L208.1,318.2z M222.1,317.3l-0.1-0.3c-2.6-5-7.6-13.5-9.9-17.8l-0.3-0.5h4l0.1,0.2
				c2.8,4.7,12.4,13,14,15l0.3,0.4L222.1,317.3z M242.4,278.6c-5.7,3.9-14.3,7-14.3,7c0,0-2,1-4.2,1h-0.1c-1.3,0-2.6-0.4-3.7-1.5
				c-1.3,0.7-2.7,3.8-2.7,3.8l-0.1,0.2h-4.8l0.1-0.4c0,0,0.9-4.9,5.6-7.5c-0.1-0.4-0.1-0.8-0.1-1.2c0-2.9,2.3-4.3,2.8-5.3
				c1-1.7,12.8-9.9,12.9-10l0.2-0.2l0.2,0.2c1.5,1.6,3.3,4.1,3.3,4.1l0.2,0.3l-0.3,0.2c0,0-8.1,4.5-11.9,8.3
				c-0.9,0.9-1.2,1.6-1.2,1.9c0,0.5,0.9,0.8,1.8,0.8c0.4,0,0.9-0.1,1-0.1c4-1.7,12.8-7.4,12.8-7.4l0.3-0.2l2.3,5.6L242.4,278.6z
				 M209.7,239.6c-1.8,1.9-4.3,2-5.1,2c-0.2,0-0.3,0-0.2,0h-0.3c-0.8,0-3.3-0.1-5.1-2L143,254.3l0-52.7h5.4l8.5-13.2v-1.9l1.5,1.5
				c0,0,0.1,0.1,0.5,0.3c0.4,0.2,1.1,0.4,2.2,0.4c2,0,5.5-0.8,10.8-4c8.2-5,14.7-6.6,19.7-6.6c7.3,0,11.3,3.4,12.8,5.1
				c1.5-1.6,5.5-5.1,12.8-5.1c5,0,11.5,1.7,19.7,6.6c5.3,3.2,8.8,4,10.9,4c1.1,0,1.8-0.2,2.2-0.4c0.4-0.2,0.5-0.3,0.5-0.3l1.5-1.5
				v1.9l8.5,13.2h5.4l0,52.7L209.7,239.6z M259.2,171.2l-0.1-0.3c-1.1-5.6-1.2-14-2.1-18.7l-0.1-0.4h3.7l0.1,0.2
				c1.3,5.2,5.5,15.4,6.5,17.8l0.2,0.4L259.2,171.2z M273.2,170.4l-0.1-0.3c-2.6-5-7.6-13.5-9.9-17.8l-0.3-0.5h4l0.1,0.2
				c2.8,4.7,12.4,13,14,15l0.3,0.4L273.2,170.4z M293.6,131.7c-5.7,3.9-14.3,7-14.3,7c0,0-2,1-4.2,1h-0.1c-1.3,0-2.6-0.4-3.7-1.5
				c-1.3,0.7-2.7,3.8-2.7,3.8l-0.1,0.2h-4.8l0.1-0.4c0,0,0.9-4.9,5.6-7.5c-0.1-0.4-0.1-0.8-0.1-1.2c0-2.9,2.3-4.3,2.8-5.3
				c1-1.7,12.8-9.9,12.9-10l0.2-0.2l0.2,0.2c1.5,1.6,3.3,4.1,3.3,4.1l0.2,0.3l-0.3,0.2c0,0-8.1,4.5-11.9,8.3
				c-0.9,0.9-1.2,1.6-1.2,1.9c0,0.5,0.9,0.8,1.8,0.8c0.4,0,0.9-0.1,1-0.1c4-1.7,12.8-7.4,12.8-7.4l0.3-0.2l2.3,5.6L293.6,131.7z
				 M251.9,191.6v41l7.4,11.3l-0.1-40.9L251.9,191.6z M248.1,235.4L248.1,235.4c-2.5,0-6.1-1.2-12.1-5c-7.9-5.1-14.1-6.7-18.7-6.7
				c-4.3,0-7.3,1.4-9.3,2.7c-1.5,1-2.4,2-2.7,2.4c0,0.1,0,0.2,0,0.3c0,0.1,0,0.1,0,0.2v0.4c0.5,2.5,6.1,3.6,6.2,3.6l46.9,12.3
				l-7.3-11.2C250.5,234.9,249.6,235.4,248.1,235.4z M156.9,191.6l-7.3,11.4l-0.1,41.1l7.4-11.5V191.6z M203.5,228.8
				c-0.3-0.4-1.2-1.4-2.7-2.4c-2-1.3-5-2.7-9.3-2.7c-4.7,0-10.8,1.6-18.7,6.7c-6,3.9-9.7,5-12.1,5h-0.1c-1.4,0-2.3-0.5-2.9-1
				l-7.2,11.2l46.9-12.2c0,0,5.6-1.1,6.1-3.6v-0.3c0-0.1,0-0.2,0-0.3C203.5,229.1,203.5,228.9,203.5,228.8z"/>
		</g>
	</g>
	<g>
		<path fill="#FFFFFF" d="M200.9,182.5c-2.6-1.7-5.6-2.6-9.1-2.6c-5.5,0-11.7,2.1-18.7,6.3c-4.7,2.9-8.7,4.3-11.9,4.3h0
			c-0.8,0-1.5-0.1-2.1-0.2v42.1l0,0c0,0,0,0.1,0.2,0.2c0.2,0.2,0.6,0.5,1.6,0.5c1.4,0,4.6-0.6,10.9-4.7c7.2-4.7,13.9-7,19.8-7
			c5.8,0,9.7,2.3,11.7,4v-40.7C202.9,184.1,202.1,183.3,200.9,182.5z"/>
		<path fill="#FFFFFF" d="M248,190.6c-3.2,0-7.3-1.4-12-4.3c-6.9-4.2-13.2-6.3-18.7-6.3c-3.5,0-6.6,0.9-9.1,2.6
			c-1.4,0.9-2.1,1.8-2.5,2.2v40.7c2-1.7,5.9-4,11.7-4c6,0,12.6,2.4,19.8,7c6.4,4.1,9.6,4.7,10.9,4.7c1,0,1.4-0.3,1.7-0.5
			c0.1-0.1,0.2-0.2,0.2-0.3l0-42.1C249.4,190.5,248.7,190.6,248,190.6z"/>
	</g>
	<path fill="#D0D2D3" d="M204.4,228.5l-0.8,1.5v-1.1c-0.3-0.4-1.2-1.4-2.7-2.4c-2-1.3-5-2.7-9.3-2.7c-4.7,0-10.8,1.6-18.7,6.7
		c-6,3.9-9.7,5-12.1,5h-0.1c-1.4,0-2.3-0.5-2.9-1l-7.8,12.2l47.7-12.4c0,0,7.1-1,6.8-5.5C204.4,228.6,204.4,228.6,204.4,228.5
		C204.4,228.6,204.4,228.5,204.4,228.5z"/>
	<polygon fill="#A6A8AB" points="156.9,191.6 148.7,204.4 148.6,245.4 156.9,232.5 	"/>
	<polygon fill="#A6A8AB" points="251.9,191.6 251.9,232.5 260.2,245.2 260.1,204.4 	"/>
	<path fill="#D0D2D3" d="M251,234.4c-0.6,0.5-1.5,1-2.9,1H248c-2.4,0-6-1.2-12.1-5c-7.9-5.1-14.1-6.7-18.7-6.7
		c-4.3,0-7.3,1.4-9.3,2.7c-1.5,1-2.4,2-2.7,2.4v1.1l-0.8-1.3c0,0,0,0,0,0h0c0,0,0,0.1,0,0.1c0,0,0,0,0,0c-0.3,4.5,6.8,5.5,6.8,5.5
		l47.8,12.4L251,234.4z"/>
</g>
</svg>
