<svg xmlns="http://www.w3.org/2000/svg" viewBox="661 244.4 660.1 664.1" enable-background="new 661 244.4 660.1 664.1"><g fill="#fff"><path d="M1147.2 581.5c6.9 50.2 23.6 109.5 41.8 163.9 6.9-11.2 11-24.4 11-38.6v-277.5c0-33.7-22.6-62-53.6-70.5-5.5 69.7-8.5 156.4.8 222.7zM1139.9 357.4c-4.1-.8-8.5-1.2-12.8-1.2h-11.2c-3.9 59.1-7.3 154.6 4.7 223.3 9.8 56.3 35.6 125.8 57.7 179 2.2-2.2 4.1-4.5 6.1-6.9-18.7-55.9-36.2-117.6-43.5-169.6-9.3-66.8-6.3-154.3-1-224.6zM946.9 514.2c49.8-41.8 104.2-110.1 139.4-157.7h-20.1c-41 49-90.4 102.8-136.1 139.2-41 32.5-96.1 64.8-148.1 91.8v29.1c52-26.6 119.6-64.4 164.9-102.4zM1058.2 356.4h-203c-40.2 0-72.9 32.7-72.9 72.9v151.1c50.8-26.6 104.4-58.1 144.2-89.6 44-35.1 91.7-86.7 131.7-134.4zM782 682.2v21.7c0 40.2 32.7 72.9 72.9 72.9h194.6c-30.5-17.9-61.4-34.1-89.8-45.9-51-21.2-117.6-37.1-177.7-48.7zM979.6 698.9c-58.1-21.1-139-33.9-197.5-41v17.7c60.7 11.6 128.4 28 180 49.2 31.5 13 66 31.5 99.8 51.8h67.4c-45.9-28.7-101.9-60.4-149.7-77.7z"/></g></svg>